<svg width="35" height="24" viewBox="0 0 35 24" fill="none" xmlns="http://www.w3.org/2000/svg">
<path d="M4.47968 1.42056C3.60506 0.837026 2.18706 0.837026 1.31244 1.42056C0.437845 2.00411 0.437845 2.95022 1.31244 3.53377L14.2453 12.1626L1.31257 20.7915C0.43798 21.375 0.43798 22.3212 1.31257 22.9047C2.18719 23.4882 3.60519 23.4882 4.47979 22.9047L17.4125 14.2758L30.3453 22.9047C31.2199 23.4882 32.638 23.4882 33.5125 22.9047C34.3871 22.3212 34.3871 21.375 33.5125 20.7915L20.5797 12.1626L33.5127 3.53377C34.3873 2.95022 34.3873 2.00411 33.5127 1.42056C32.6382 0.837026 31.2201 0.837026 30.3455 1.42056L17.4125 10.0495L4.47968 1.42056Z" fill="white"/>
</svg>
